<?xml version="1.0" encoding="UTF-8" standalone="no"?>
<!-- Created with Inkscape (http://www.inkscape.org/) -->

<svg
   xmlns:dc="http://purl.org/dc/elements/1.1/"
   xmlns:cc="http://creativecommons.org/ns#"
   xmlns:rdf="http://www.w3.org/1999/02/22-rdf-syntax-ns#"
   xmlns:svg="http://www.w3.org/2000/svg"
   xmlns="http://www.w3.org/2000/svg"
   xmlns:sodipodi="http://sodipodi.sourceforge.net/DTD/sodipodi-0.dtd"
   xmlns:inkscape="http://www.inkscape.org/namespaces/inkscape"
   width="530"
   height="490"
   viewBox="0 0 530 490.00001"
   id="svg2"
   version="1.1"
   inkscape:version="0.91 r13725"
   sodipodi:docname="SocietyCMS-slant.svg"
   inkscape:export-filename="SocietyCMS-sign.png"
   inkscape:export-xdpi="90"
   inkscape:export-ydpi="90">
  <sodipodi:namedview
     id="base"
     pagecolor="#ffffff"
     bordercolor="#666666"
     borderopacity="1.0"
     inkscape:pageopacity="0.0"
     inkscape:pageshadow="2"
     inkscape:zoom="1.4142136"
     inkscape:cx="252.51934"
     inkscape:cy="260.22582"
     inkscape:document-units="px"
     inkscape:current-layer="layer1"
     showgrid="false"
     showguides="true"
     inkscape:guide-bbox="true"
     units="px"
     inkscape:window-width="1871"
     inkscape:window-height="1176"
     inkscape:window-x="1969"
     inkscape:window-y="24"
     inkscape:window-maximized="1">
    <sodipodi:guide
       orientation="1,0"
       position="256,390.54297"
       id="guide3355" />
    <sodipodi:guide
       orientation="0,1"
       position="-289.375,256"
       id="guide3357" />
  </sodipodi:namedview>
  <defs
     id="defs4" />
  <metadata
     id="metadata7">
    <rdf:RDF>
      <cc:Work
         rdf:about="">
        <dc:format>image/svg+xml</dc:format>
        <dc:type
           rdf:resource="http://purl.org/dc/dcmitype/StillImage" />
        <dc:title />
      </cc:Work>
    </rdf:RDF>
  </metadata>
  <g
     inkscape:label="Ebene 1"
     inkscape:groupmode="layer"
     id="layer1"
     transform="translate(0,-562.36216)">
    <path
       style="fill:#000000"
       d="m 1127.9353,333.76337 c -5.3934,-2.8175 -7.3253,-4.7493 -10.1428,-10.1427 l -3.4804,-6.6623 0,-299.714521 0,-299.714519 3.4804,-6.66231 c 2.8175,-5.39336 4.7494,-7.32521 10.1428,-10.14274 l 6.6623,-3.48043 299.7145,0 299.7145,0 6.6956,3.49786 c 5.517,2.8821 7.3062,4.69749 10.1635,10.3125 l 3.4678,6.81464 -0.3332,108.53492 -0.3332,108.534929 -5.9805,-8.14519 c -17.3138,-23.58061 -47.146,-42.937509 -85.7958,-55.669219 -21.0951,-6.94898 -39.6394,-11.35278 -79.4795,-18.87433 -90.0426,-16.99947 -101.3915,-19.80535 -123.7907,-30.60599 -23.9488,-11.54783 -30.4806,-26.24035 -20.4268,-45.94742 8.6761,-17.00666 36.5198,-33.66976 70.6963,-42.30828 23.9184,-6.04568 39.7765,-7.93352 66.652,-7.93462 41.985,-0.002 74.7412,6.58335 102.7175,20.64958 9.0316,4.54099 10.8917,5.05893 14.7464,4.10605 3.2143,-0.79458 4.4111,-1.76873 4.4111,-3.59043 0,-1.88779 -2.5813,-3.78418 -10.541,-7.74401 -43.9243,-21.85172 -114.8389,-27.81455 -173.7521,-14.60987 -55.4898,12.43736 -90.8153,36.47236 -98.3236,66.89803 -1.871,7.58177 -1.8732,8.79583 -0.028,15.1443 1.3665,4.7005 3.8474,8.94945 7.7788,13.32205 15.1801,16.88399 45.7191,27.70906 116.7405,41.38079 70.0733,13.4892 87.0564,17.36092 110.625,25.21968 63.6361,21.218949 94.1581,56.109399 100.6622,115.0694789 4.6153,41.8372901 -11.7203,90.0570401 -44.1488,130.3195711 -7.2471,8.9978 -32.5121,33.8725 -42.8373,42.1754 -21.4025,17.2107 -55.1894,36.9357 -86.8011,50.6751 -7.0925,3.0826 -33.0347,11.7568 -43.75,14.6284 -4.4687,1.1976 -9.5312,2.616 -11.25,3.152 -2.8216,0.8799 -8.8597,2.1229 -30,6.1761 -13.9359,2.6718 -43.3045,5.068 -62.117,5.068 -67.3042,0 -128.3597,-21.1761 -176.4532,-61.2 -31.8415,-26.4988 -57.5769,-62.8643 -68.9433,-97.420831 -1.8988,-5.77269 -4.4079,-11.03054 -5.5758,-11.68412 -3.1167,-1.74425 -12.3065,0.9296 -19.8686,5.78095 -8.3381,5.34915 -14.8998,12.729051 -17.5966,19.790601 -2.0935,5.4815 -2.0739,5.964 0.6542,16.1294 9.9812,37.1925 31.9296,74.2615 61.7753,104.333 23.4874,23.6651 43.8212,38.3242 72.5,52.2667 9.8277,4.7778 15.0454,7.0471 27.9263,12.146 14.2834,5.6541 37.7108,11.5263 62.6987,15.7159 18.8482,3.1602 75.6159,3.147 96.875,-0.023 33.0864,-4.9328 50.8514,-9.0169 80.625,-18.5354 87.1508,-27.8617 167.7765,-89.6133 205.5024,-157.3952 l 4.469,-8.0295 0.014,95.7948 0.014,95.7947 -3.4805,6.6623 c -2.8175,5.3934 -4.7493,7.3253 -10.1427,10.1428 l -6.6623,3.4804 -299.7146,0 -299.7145,0 -6.6623,-3.4805 z m 322.3225,-117.1243 c 36.3898,-5.5419 69.1545,-20.2334 97.1793,-43.5748 16.9564,-14.1226 40.625,-42.8525 40.625,-49.3122 0,-5.0705 -3.5673,-2.8722 -10.457,6.444 -27.7766,37.5596 -68.0975,62.032 -113.5973,68.9468 -51.9063,7.8885 -104.9852,-8.7646 -140.9001,-44.2064 -9.9309,-9.8001 -20.757,-22.8538 -22.9668,-27.6926 -0.471,-1.0313 -1.9416,-3.5625 -3.268,-5.625 -2.8342,-4.4072 -8.8108,-16.7355 -8.8108,-18.17477 0,-0.54871 -0.7813,-2.59011 -1.7363,-4.536451 -8.6757,-17.68243 -12.3341,-56.56228 -7.6504,-81.30635 9.6419,-50.93934 42.0968,-93.48204 89.4635,-117.27104 46.7736,-23.491109 100.4824,-24.800289 148.3818,-3.616899 22.2128,9.823559 46.4894,29.491199 61.6005,49.905489 6.3512,8.58009 7.6115,9.70444 9.1514,8.16447 2.0175,-2.01752 -0.3635,-7.19217 -8.1278,-17.66382 -25.3688,-34.215 -61.9751,-57.552559 -106.8967,-68.149889 -16.7215,-3.94472 -49.0431,-5.41542 -67.107,-3.0535 -42.3485,5.53721 -83.809,25.15259 -112.8351,53.383479 -25.5827,24.8818 -39.6442,48.16442 -49.9165,82.6506499 -1.6926,5.68226 -3.0774,11.4249101 -3.0774,12.7614401 0,1.33653 -0.6502,6.80167 -1.4449,12.14477 -1.0309,6.93125 -1.722,9.00525 -2.4121,7.23856 -0.5411,-1.38507 -0.9511,3.85799 -0.9305,11.89884 0.02,7.90625 0.4257,12.97796 0.9011,11.27047 0.6527,-2.34418 1.2365,-0.66041 2.3837,6.875 0.8356,5.48874 1.5155,11.15043 1.511,12.58152 -0.01,2.55987 3.3032,14.47962 7.0903,25.523011 3.3082,9.64682 11.9522,26.44762 18.9721,36.87502 8.1318,12.0789 7.4066,11.2063 20.3451,24.481 26.9349,27.6349 60.2461,44.7958 101.7092,52.3977 15.8873,2.9128 45.8947,3.2192 62.8207,0.6415 z"
       id="path3347"
       inkscape:connector-curvature="0" />
    <path
       style="fill:none;fill-rule:evenodd;stroke:#000000;stroke-width:1.02960742px;stroke-linecap:butt;stroke-linejoin:miter;stroke-opacity:1"
       d="m 975.83359,548.37223 219.98831,0 124.6396,493.16567 -730.60743,0 z"
       id="path3359"
       inkscape:connector-curvature="0" />
    <g
       transform="matrix(0,-1.0425615,1,0,-10,-36.329806)"
       style="font-style:normal;font-weight:normal;font-size:40px;line-height:125%;font-family:sans-serif;letter-spacing:0px;word-spacing:0px;fill:#2185d0;fill-opacity:1;stroke:none;stroke-width:1px;stroke-linecap:butt;stroke-linejoin:miter;stroke-opacity:1"
       id="text3478">
      <path
         inkscape:connector-curvature="0"
         d="m -1041.548,234.83114 c 0,205.68468 147.55083,326.2789 261.76832,295.67442 83.88592,-22.47716 97.38868,-102.99723 109.37202,-175.26361 10.68587,-62.8943 20.25401,-118.22559 54.83451,-94.85932 19.93737,13.4718 33.93936,59.61948 33.93936,104.41106 0,53.7499 -16.88801,84.36954 -17.13194,84.8611 -1.22771,2.00938 -1.22771,5.72669 -0.24447,8.35725 1.21699,2.10566 3.13678,2.23451 4.31987,-0.23795 0.93734,-1.50718 18.32817,-34.14641 18.32817,-91.50656 0,-49.8784 -15.99977,-101.87068 -39.21099,-118.80627 -42.57311,-31.06261 -53.98403,33.68407 -65.89684,101.45961 -12.42241,71.5295 -25.35843,144.88155 -98.30969,160.64632 -96.37376,20.82637 -211.41365,-88.29352 -211.41365,-260.55354 0,-174.812011 136.25222,-202.031204 137.37806,-202.140135 5.55071,-0.537064 4.45091,-9.267313 -1.12584,-18.765997 -5.7097,-9.725137 -15.13385,-16.553743 -21.21233,-16.419452 -4.97153,0.109836 -165.39456,20.21926 -165.39456,223.143074 0,0 0,0 0,0"
         style="font-style:normal;font-variant:normal;font-weight:300;font-stretch:normal;font-size:180px;font-family:Quicksand;-inkscape-font-specification:'Quicksand Light';fill:#2185d0;fill-opacity:1"
         id="path3483" />
    </g>
    <g
       transform="matrix(-0.88678702,0,0,0.88678702,-263.3486,98.92758)"
       id="text3507"
       style="font-style:normal;font-weight:normal;font-size:357.70007324px;line-height:125%;font-family:sans-serif;letter-spacing:0px;word-spacing:0px;fill:#2c3e50;fill-opacity:1;stroke:none;stroke-width:1px;stroke-linecap:butt;stroke-linejoin:miter;stroke-opacity:1">
      <path
         inkscape:connector-curvature="0"
         id="path3514"
         style="font-style:normal;font-variant:normal;font-weight:300;font-stretch:normal;font-family:Quicksand;-inkscape-font-specification:'Quicksand Light';fill:#2185d0;fill-opacity:1"
         d="m -399.20627,826.99792 c 0,-145.3228 -143.41022,-201.52078 -238.82836,-160.87637 -27.68039,11.94673 -48.48368,30.92008 -62.96369,51.24359 -1.28631,1.96818 -1.71174,4.58341 -0.64504,5.81777 1.07718,1.55969 2.82285,1.05681 4.15035,-0.59585 13.70071,-19.19106 33.53222,-35.78035 59.45838,-46.01207 86.08437,-33.97305 209.08094,20.26459 209.08094,148.21274 0,126.54983 -122.99657,162.86015 -209.08094,116.33989 -26.22021,-14.16947 -46.0081,-33.61649 -59.68073,-54.77614 -1.10515,-2.0641 -2.85082,-2.50574 -4.14217,-1.1978 -0.85253,1.17363 -0.4271,3.85087 0.85921,6.00654 13.99108,22.17261 35.2833,44.43957 62.96369,60.42085 95.41814,55.08973 238.82836,19.25678 238.82836,-124.58315 0,0 0,0 0,0" />
    </g>
    <path
       inkscape:connector-curvature="0"
       id="path3511"
       d="m 385.37319,1229.846 0,220.6173 -303.095631,174.9923 0,-526.4244 z"
       style="fill:none;fill-rule:evenodd;stroke:#000000;stroke-width:1px;stroke-linecap:butt;stroke-linejoin:miter;stroke-opacity:1" />
  </g>
</svg>
