<?xml version="1.0" standalone="no"?>
<!DOCTYPE svg PUBLIC "-//W3C//DTD SVG 20010904//EN"
 "http://www.w3.org/TR/2001/REC-SVG-20010904/DTD/svg10.dtd">
<svg version="1.0" xmlns="http://www.w3.org/2000/svg"
 width="512.000000pt" height="512.000000pt" viewBox="0 0 512.000000 512.000000"
 preserveAspectRatio="xMidYMid meet">
<metadata>
Created by potrace 1.11, written by Peter Selinger 2001-2013
</metadata>
<g transform="translate(0.000000,512.000000) scale(0.100000,-0.100000)"
fill="#000000" stroke="none">
<path d="M207 5106 c-83 -30 -143 -89 -184 -181 -17 -38 -18 -149 -18 -2365
l0 -2325 26 -56 c31 -65 82 -119 142 -151 l42 -23 2345 0 2345 0 42 23 c60 32
111 86 142 151 l26 56 3 670 3 669 -57 -94 c-184 -308 -485 -616 -811 -832
-449 -299 -999 -480 -1599 -529 -208 -17 -589 -7 -764 20 -514 79 -903 263
-1216 575 -244 245 -421 554 -514 898 -42 157 -49 242 -22 293 28 56 122 141
187 171 60 28 123 29 135 4 4 -8 27 -75 50 -147 124 -392 379 -728 724 -958
377 -251 855 -363 1434 -334 637 31 1214 228 1667 568 118 90 313 275 398 381
184 228 306 481 363 750 26 119 26 373 1 488 -106 487 -421 759 -1063 921
-117 29 -248 56 -719 146 -562 108 -793 194 -884 331 -40 60 -46 115 -23 191
58 186 245 332 552 432 364 118 780 141 1174 65 182 -36 393 -108 453 -156 18
-15 5 -36 -27 -43 -22 -5 -52 4 -119 34 -117 53 -257 94 -417 122 -111 20
-162 23 -369 23 -258 0 -345 -10 -539 -61 -276 -72 -472 -192 -535 -328 -64
-137 -19 -235 146 -319 146 -73 305 -112 848 -211 553 -100 772 -159 1012
-275 195 -94 341 -202 454 -339 34 -42 66 -80 71 -86 5 -5 7 355 6 800 l-3
810 -26 56 c-31 65 -82 119 -142 151 l-42 23 -2330 2 c-1944 2 -2336 0 -2368
-11z m2648 -1314 c317 -69 580 -228 770 -465 63 -78 78 -118 53 -133 -7 -5
-22 6 -37 27 -14 19 -57 67 -96 108 -167 176 -377 291 -635 347 -67 15 -125
19 -270 18 -163 0 -198 -3 -296 -26 -559 -131 -954 -543 -1049 -1093 -74 -433
30 -854 279 -1122 285 -308 769 -428 1235 -307 313 82 617 289 801 547 57 81
80 95 80 50 0 -56 -203 -298 -349 -417 -206 -168 -442 -280 -711 -337 -90 -20
-135 -23 -320 -23 -199 -1 -223 1 -327 26 -539 128 -879 497 -959 1042 -23
153 -15 459 15 598 63 289 195 538 388 733 236 239 561 397 913 445 110 15
412 4 515 -18z"/>
</g>
</svg>
