<?xml version="1.0" standalone="no"?>
<!DOCTYPE svg PUBLIC "-//W3C//DTD SVG 20010904//EN"
 "http://www.w3.org/TR/2001/REC-SVG-20010904/DTD/svg10.dtd">
<svg version="1.0" xmlns="http://www.w3.org/2000/svg"
 width="700.000000pt" height="700.000000pt" viewBox="0 0 700.000000 700.000000"
 preserveAspectRatio="xMidYMid meet">
<metadata>
Created by potrace 1.11, written by Peter Selinger 2001-2013
</metadata>
<g transform="translate(0.000000,700.000000) scale(0.100000,-0.100000)"
fill="#000000" stroke="none">
<path d="M302 6984 c-146 -39 -253 -159 -288 -323 -21 -99 -21 -6223 0 -6322
36 -166 143 -285 292 -324 51 -13 429 -15 3194 -15 3426 0 3193 -4 3296 56 54
32 118 103 151 168 52 103 53 112 53 1056 l0 875 -55 -93 c-527 -899 -1481
-1549 -2645 -1801 -625 -136 -1369 -148 -1932 -32 -956 198 -1649 746 -2015
1596 -87 201 -162 456 -184 624 -12 89 -12 89 16 147 64 132 262 276 380 276
59 0 69 -12 86 -91 33 -161 170 -478 293 -681 385 -630 1017 -1043 1806 -1179
239 -41 316 -46 680 -46 377 1 481 9 790 61 686 115 1343 408 1834 817 777
647 1112 1539 865 2300 -122 376 -382 661 -780 855 -302 147 -612 232 -1364
372 -908 169 -1197 258 -1384 426 -131 118 -149 241 -61 420 154 314 637 546
1315 631 191 24 555 23 755 -1 297 -37 625 -123 798 -210 76 -38 92 -56 72
-81 -23 -28 -91 -18 -197 29 -516 229 -1263 271 -1853 105 -455 -129 -716
-335 -728 -576 -4 -63 -1 -77 24 -123 47 -86 119 -140 283 -210 180 -78 436
-139 1071 -254 605 -110 796 -153 1046 -235 460 -151 801 -373 1028 -670 l56
-73 0 1068 c0 1154 0 1146 -53 1250 -33 65 -97 136 -151 168 -103 60 131 56
-3301 55 -2690 0 -3148 -2 -3193 -15z m3483 -1783 c434 -64 778 -238 1070
-542 125 -130 187 -213 189 -252 1 -25 -3 -33 -19 -35 -16 -2 -37 18 -85 79
-179 227 -456 419 -747 518 -504 172 -1105 98 -1582 -193 -294 -179 -536 -446
-683 -752 -137 -286 -196 -591 -185 -953 14 -472 157 -831 447 -1122 486 -488
1308 -590 2005 -249 321 156 565 364 769 653 47 66 71 81 82 52 11 -26 -14
-75 -93 -183 -139 -191 -364 -406 -563 -539 -413 -276 -944 -411 -1431 -363
-741 74 -1285 497 -1490 1159 -70 226 -94 428 -86 720 10 358 74 625 218 914
296 591 882 994 1589 1092 149 20 441 18 595 -4z"/>
</g>
</svg>
