<svg xmlns="http://www.w3.org/2000/svg" viewBox="0 0 933.33331 933.33331" height="933.333" width="933.333"><defs><clipPath id="a"><path d="M0 700h700V0H0z"/></clipPath></defs><g clip-path="url(#a)" transform="matrix(1.33333 0 0 -1.33333 0 933.333)"><path d="M533.822 358.983c-2.853-.624-49.56-12.212-49.56-12.212l-38.202 52.414c-1.07 1.515-1.96 3.03.713 3.387 2.674.358 46.084 8.203 48.045 8.648 1.96.445 3.655.98 6.062-2.318 2.406-3.298 35.437-45.104 36.685-46.708 1.248-1.605-.89-2.585-3.743-3.21m-8.155-90.315c1.166-1.834 2.332-3-1.334-4.334-3.666-1.333-123.667-41.833-126-42.833-2.333-1-4.166-1.333-7.166 3s-42.042 71.9-42.042 71.9l127.208 33.1c3.167 1 4.167 1.667 6.167-1.5s42-57.5 43.167-59.333m-206.02 38.615c-1.56-.334-74.63-17.822-78.53-18.714-3.898-.89-3.898-.445-4.343.892-.446 1.337-86.88 179.56-88.08 181.787-1.2 2.228-1.137 3.993 0 3.993 1.138 0 69.01 6.067 71.41 6.193 2.402.127 2.15-.38 3.033-1.895 0 0 95.73-165.24 97.4-168.135 1.672-2.895.67-3.787-.89-4.12m237.172 48.49c-2.853 3.21-42.303 52.592-49.255 60.97-6.952 8.38-10.34 6.865-14.62 6.24-4.278-.623-54.194-9.002-59.988-9.982-5.794-.98-9.448-3.298-5.883-8.29 3.17-4.438 35.986-50.96 43.214-61.207l-130.46-31.253L236.07 485.713c-4.13 6.124-4.988 8.264-14.388 7.836-9.4-.428-81.392-6.41-86.52-6.837-5.127-.428-10.755-2.71-5.628-14.816 5.128-12.106 86.887-188.29 89.165-193.416 2.28-5.126 8.205-13.444 22.078-10.11 14.213 3.414 63.502 16.28 90.434 23.332 14.23-25.77 43.254-78.045 48.62-85.535 7.167-10 12.1-8.346 23.1-5.013 8.59 2.603 134.4 47.846 140.068 50.18 5.667 2.332 9.167 4 5.333 9.666-2.82 4.166-36.008 48.63-53.392 71.89 11.907 3.17 54.245 14.44 58.76 15.664 5.258 1.426 5.972 4.01 3.12 7.22" fill="#fb503b"/></g></svg>